<?xml version="1.0" standalone="no"?>
<!DOCTYPE svg PUBLIC "-//W3C//DTD SVG 20010904//EN"
 "http://www.w3.org/TR/2001/REC-SVG-20010904/DTD/svg10.dtd">
<svg version="1.0" xmlns="http://www.w3.org/2000/svg"
 width="482.000000pt" height="482.000000pt" viewBox="0 0 482.000000 482.000000"
 preserveAspectRatio="xMidYMid meet">
<metadata>
Created by potrace 1.11, written by Peter Selinger 2001-2013
</metadata>
<g transform="translate(0.000000,482.000000) scale(0.100000,-0.100000)"
fill="#000000" stroke="none">
<path d="M1520 4512 c-51 -14 -102 -48 -116 -74 -38 -74 -20 -165 43 -208 32
-22 47 -25 124 -25 95 0 120 11 163 68 28 37 28 133 0 170 -23 31 -66 58 -102
63 -58 8 -98 10 -112 6z"/>
<path d="M3435 4421 c-39 -12 -74 -43 -85 -77 -23 -69 -14 -128 39 -274 22
-58 44 -122 51 -142 18 -58 43 -50 64 20 10 31 33 99 52 151 59 156 54 263
-14 303 -32 19 -79 27 -107 19z"/>
<path d="M30 4353 c0 -17 6 -23 23 -23 12 0 39 -5 60 -11 68 -19 67 -5 67
-659 0 -499 -2 -585 -15 -610 -18 -35 -36 -45 -92 -55 -33 -5 -43 -11 -43 -26
0 -10 6 -19 13 -20 16 -1 658 -1 674 0 8 1 11 11 9 23 -2 17 -10 23 -32 25
-112 7 -156 28 -171 78 -7 21 -12 122 -13 241 l-1 204 88 1 c48 0 97 2 108 3
42 5 140 20 145 21 3 1 19 5 35 10 120 33 240 128 288 227 88 186 48 376 -104
491 -38 29 -136 72 -185 82 -16 3 -40 8 -54 11 -14 3 -199 6 -412 8 l-388 2 0
-23z m734 -60 c75 -53 108 -148 109 -311 2 -186 -22 -272 -93 -343 -52 -52
-103 -69 -211 -69 l-60 0 3 348 c2 191 7 355 12 366 26 54 167 60 240 9z"/>
<path d="M2305 4306 c-17 -12 -69 -25 -155 -40 -14 -3 -40 -5 -57 -5 l-33 -1
0 -133 0 -133 -85 0 c-85 1 -85 1 -85 -25 0 -25 0 -25 85 -23 l85 1 0 -391 c1
-215 3 -409 7 -431 18 -130 110 -204 256 -207 107 -3 183 32 240 110 42 57 56
100 36 113 -20 12 -29 11 -29 -4 0 -23 -74 -95 -104 -103 -41 -10 -79 6 -96
41 -13 25 -15 96 -15 450 l1 420 178 0 178 0 0 -393 c0 -472 4 -502 85 -577
51 -47 167 -69 266 -52 72 13 145 75 189 160 20 39 20 41 2 54 -17 12 -20 12
-29 -4 -5 -10 -29 -37 -53 -60 -48 -49 -93 -57 -133 -24 l-24 19 -3 439 -3
439 118 0 c114 0 118 1 121 22 4 25 10 24 -140 25 l-98 0 0 165 c0 184 8 169
-77 138 -48 -18 -78 -24 -152 -31 -30 -3 -58 -8 -63 -11 -4 -3 -8 -53 -7 -112
0 -59 0 -116 0 -127 -1 -20 -7 -21 -176 -21 -119 -1 -175 3 -176 10 -1 6 -2
78 -3 161 -1 160 -6 173 -51 141z"/>
<path d="M4044 4018 c-3 -5 -9 -6 -14 -3 -26 16 -177 -57 -218 -105 -28 -32
-55 -107 -58 -158 -6 -116 47 -199 214 -339 175 -147 198 -170 221 -224 21
-48 23 -97 5 -144 -8 -22 -53 -64 -69 -66 -5 0 -23 -3 -39 -5 -76 -13 -159 33
-210 114 -34 55 -83 232 -68 247 3 3 -9 5 -26 5 l-31 0 -3 -192 c-2 -106 -1
-199 1 -205 4 -18 51 -17 51 1 0 8 8 24 19 37 l18 23 84 -37 c154 -68 296 -68
429 -2 43 22 120 90 120 106 0 4 6 14 14 21 19 20 34 97 29 159 -8 115 -65
186 -270 341 -160 120 -200 163 -210 220 -4 24 -6 48 -4 53 2 6 5 18 7 28 2
11 14 28 26 39 81 71 213 40 285 -67 21 -32 63 -148 63 -176 0 -25 27 -44 44
-30 10 8 14 48 15 159 1 81 3 158 4 172 2 19 -3 26 -21 28 -18 3 -26 -4 -37
-32 -12 -27 -21 -36 -40 -36 -13 0 -26 4 -30 9 -21 35 -284 86 -301 59z"/>
<path d="M1650 4005 c-36 -7 -123 -12 -195 -13 -71 -1 -135 -2 -140 -2 -6 0
-11 -9 -12 -20 -1 -15 8 -22 35 -30 58 -16 75 -35 89 -100 5 -24 4 -742 -2
-769 -7 -36 -34 -61 -81 -72 -32 -8 -42 -16 -41 -30 1 -20 5 -21 82 -20 128 1
326 1 385 0 89 -2 90 -1 90 19 0 13 -13 23 -47 33 -85 25 -83 12 -83 546 0
254 -3 463 -7 465 -5 2 -37 -1 -73 -7z"/>
<path d="M3860 2241 c-56 -11 -142 -55 -181 -92 -82 -78 -116 -164 -125 -317
-4 -59 -9 -109 -11 -112 -3 -3 -30 -6 -61 -6 -75 -2 -72 -1 -72 -24 0 -21 16
-24 102 -21 l38 1 -3 -442 c-2 -412 -3 -445 -20 -470 -17 -24 -73 -47 -99 -40
-5 1 -8 -9 -8 -23 0 -28 -5 -27 110 -24 47 1 181 1 299 0 194 -2 213 0 207 14
-3 9 -6 20 -6 24 0 4 -16 8 -35 9 -41 2 -96 25 -118 50 -8 9 -18 31 -23 47 -5
17 -9 215 -8 440 l1 410 54 2 c30 1 78 2 107 2 49 1 53 3 50 24 -3 21 -7 22
-103 21 -55 0 -102 3 -105 7 -7 10 -3 279 4 342 13 106 91 166 175 135 24 -8
23 -9 -17 -35 -47 -31 -72 -74 -72 -127 0 -91 57 -146 151 -146 96 0 149 53
149 147 -1 148 -179 244 -380 204z"/>
<path d="M669 2126 c-2 -2 -22 -7 -44 -10 -185 -29 -361 -147 -461 -311 -83
-135 -114 -266 -109 -460 3 -145 19 -227 64 -328 89 -203 299 -349 538 -372
184 -19 306 6 423 86 53 36 98 57 108 50 14 -9 32 -56 32 -87 0 -20 5 -24 28
-24 l28 0 -2 222 c-2 123 -3 238 -4 256 0 30 -2 33 -27 30 -25 -3 -29 -8 -34
-53 -25 -197 -54 -261 -153 -341 -96 -78 -200 -104 -312 -79 -200 45 -321 289
-327 660 -1 68 10 215 18 245 2 8 6 32 9 52 3 21 15 66 27 100 68 197 172 296
319 303 73 4 174 -17 201 -41 8 -8 20 -14 25 -14 5 0 33 -23 63 -52 63 -60
102 -140 121 -243 17 -95 25 -114 50 -112 14 1 20 8 20 27 1 14 2 125 3 248
l2 223 -24 -3 c-19 -2 -26 -12 -36 -51 -18 -71 -26 -75 -81 -41 -167 103 -205
116 -350 120 -61 2 -113 2 -115 0z"/>
<path d="M4490 2026 c-38 -20 -148 -43 -217 -45 -23 -1 -23 -3 -23 -131 0 -97
-3 -130 -12 -131 -7 -1 -44 -2 -82 -3 -62 -1 -70 -3 -77 -23 -8 -22 -6 -23 49
-24 31 -1 72 0 90 1 l32 2 1 -394 c1 -407 1 -411 13 -467 25 -109 123 -174
261 -173 119 1 206 55 261 164 l24 47 -21 12 c-21 11 -38 0 -39 -23 0 -10 -66
-78 -77 -79 -4 0 -23 -2 -40 -4 -40 -4 -70 19 -81 60 -6 23 -8 716 -3 833 1
22 3 23 109 21 118 -2 137 2 123 30 -8 15 -24 17 -120 16 -129 -1 -117 -21
-115 183 0 155 -1 157 -56 128z"/>
<path d="M2055 1732 c-67 -19 -127 -62 -164 -118 l-31 -47 0 81 c0 44 -4 83
-8 86 -4 3 -26 0 -48 -5 -21 -6 -113 -12 -203 -13 -158 -3 -165 -4 -168 -24
-2 -17 5 -23 39 -33 86 -23 89 -42 89 -490 -1 -439 1 -431 -103 -453 -19 -4
-26 -12 -25 -26 1 -20 7 -21 212 -18 115 1 239 1 275 -1 118 -5 130 -3 130 19
0 20 -7 23 -82 35 -53 8 -95 51 -103 106 -3 24 -5 179 -3 344 l3 300 27 55
c42 87 83 123 154 136 l38 7 -37 -43 c-20 -24 -38 -53 -39 -64 -4 -66 -3 -84
10 -112 8 -17 27 -39 43 -48 33 -20 109 -28 150 -16 66 19 109 92 104 176 -8
137 -119 208 -260 166z"/>
<path d="M2765 1738 c-132 -17 -217 -52 -280 -117 -36 -37 -39 -46 -43 -103
-6 -111 50 -176 145 -173 100 4 158 56 162 145 2 61 -23 108 -76 144 -33 23
-34 25 -15 35 66 35 188 29 224 -11 39 -44 50 -87 51 -204 1 -89 -3 -117 -16
-138 -21 -31 -87 -66 -194 -102 -255 -86 -347 -177 -336 -337 6 -96 63 -182
140 -209 21 -7 74 -13 118 -13 110 0 174 25 241 92 l52 52 7 -27 c21 -87 90
-124 219 -118 75 4 161 33 190 64 12 15 12 20 1 36 -13 18 -15 18 -41 -3 -33
-26 -39 -26 -64 -1 -18 18 -19 36 -20 370 -1 420 -7 464 -76 534 -72 72 -226
105 -389 84z m169 -668 c-1 -212 -4 -225 -64 -259 -120 -67 -220 42 -185 202
12 59 57 109 154 175 31 20 62 45 69 55 7 9 16 17 20 17 4 0 7 -86 6 -190z"/>
<path d="M1000 300 c0 -20 5 -20 1412 -18 1335 3 1411 4 1414 20 2 17 -71 18
-1412 18 -1408 0 -1414 0 -1414 -20z"/>
</g>
</svg>
